<svg xmlns="http://www.w3.org/2000/svg" viewBox="0 0 22 22"><defs><linearGradient id="a" x1="11" x2="11" y1=".55" y2="21.45" gradientUnits="userSpaceOnUse"><stop offset=".01" stop-color="#bfbfbf"/><stop offset="1" stop-color="#3a3a3a"/></linearGradient><linearGradient id="b" x1="58.79" x2="58.79" y1="76.58" y2="73.81" gradientTransform="matrix(.94 0 0 .94 -44.33 -59.77)" gradientUnits="userSpaceOnUse"><stop offset="0" stop-color="#bdbdbd"/><stop offset="1" stop-color="#404040"/></linearGradient><linearGradient id="c" x1="-1237.9" x2="-1222.08" y1="403.83" y2="403.83" gradientTransform="matrix(0 -.94 .94 0 -369.07 -1146.64)" gradientUnits="userSpaceOnUse"><stop offset="0" stop-color="#6f6f6f"/><stop offset="1" stop-color="#212121"/></linearGradient><linearGradient id="d" x1="-1882.8" x2="-1882.8" y1="1.18" y2="15" gradientTransform="matrix(-.94 0 0 .94 -1761.02 3.39)" gradientUnits="userSpaceOnUse"><stop offset="0" stop-color="#bfbfbf"/><stop offset="1" stop-color="#141414"/></linearGradient><linearGradient id="e" x1="-1882.8" x2="-1882.8" y1="13.54" y2="2.63" gradientTransform="matrix(-.94 0 0 .94 -1761.02 3.39)" gradientUnits="userSpaceOnUse"><stop offset="0" stop-color="#bfbfbf"/><stop offset="1" stop-color="#2d2d2d"/></linearGradient></defs><path d="M11 .55a10.45 10.45 0 1 0 0 20.9 10.45 10.45 0 0 0 0-20.9Z" style="fill:url(#a)"/><path d="m1.27 9.7-.4.39c-.41.54-.41 1.3 0 1.84l.38.35 19.48.02.38-.36c.44-.54.44-1.3.01-1.85l-.39-.37-19.46-.03Z" style="fill:url(#b)"/><circle cx="11" cy="11" r="7.45" style="fill:url(#c)"/><circle cx="11" cy="11" r="6.96"/><circle cx="11" cy="11" r="6.5" style="fill:url(#d)"/><circle cx="11" cy="11" r="6.09" style="fill:#a0a0a0"/><circle cx="11" cy="11" r="5.14" style="fill:url(#e)"/><circle cx="11" cy="11" r="4.5"/><path d="M8.56 14.78a4.47 4.47 0 0 0 4.87 0v-1.25H8.56v1.25Z" style="fill:#1d1d1b"/><path d="M8.56 11h4.87v2.53H8.56z" style="fill:#3c3c3b"/></svg>